<mxfile host="app.diagrams.net" modified="2023-05-04T09:41:07.157Z" agent="Mozilla/5.0 (X11; Linux x86_64) AppleWebKit/537.36 (KHTML, like Gecko) Chrome/112.0.0.0 Safari/537.36" etag="_GCTpEKDsm2PK9V-Niqv" version="21.2.7" type="github">
  <diagram name="Карта цели" id="TAk7JrgPaMYRGvY2jomg">
    <mxGraphModel dx="946" dy="1763" grid="1" gridSize="10" guides="1" tooltips="1" connect="1" arrows="1" fold="1" page="0" pageScale="1" pageWidth="827" pageHeight="1169" math="0" shadow="0">
      <root>
        <mxCell id="0" />
        <mxCell id="1" parent="0" />
        <mxCell id="25aKeIaVAZPDfs39vTHc-3" value="Инженер электроники и информационных систем" style="ellipse;whiteSpace=wrap;html=1;aspect=fixed;fillColor=#FF3333;strokeColor=#b85450;fontColor=#FFFFFF;" parent="1" vertex="1">
          <mxGeometry x="130" y="-190" width="130" height="130" as="geometry" />
        </mxCell>
      </root>
    </mxGraphModel>
  </diagram>
</mxfile>
